<svg width="624" height="711" viewBox="0 0 624 711" fill="none" xmlns="http://www.w3.org/2000/svg">
<path d="M222.253 318.467C209.097 325.972 193.357 328.149 177.947 324.586C162.531 321.034 149.337 312.185 140.796 299.674C132.39 287.357 129.515 272.95 132.713 259.101L117.682 255.637C113.51 273.725 117.198 292.455 128.057 308.367C138.791 324.085 155.276 335.184 174.478 339.612C180.463 340.992 186.494 341.675 192.468 341.675C193.4 341.675 194.332 341.654 195.259 341.623C195.202 341.716 195.15 341.815 195.093 341.909C178.671 369.826 144.535 380.378 119.005 365.414L111.213 378.716C121.52 384.753 132.885 387.618 144.265 387.618C169.161 387.618 194.145 373.92 208.348 349.774C210.405 346.346 212.186 342.68 213.743 338.669C219.358 337.044 224.775 334.768 229.889 331.852C246.623 322.305 258.139 307.086 262.315 288.992L247.285 285.528C244.103 299.383 235.207 311.075 222.254 318.465L222.253 318.467Z" fill="black"/>
<path d="M263.08 231.387C257.799 231.736 252.471 232.71 246.788 234.371L251.116 249.174C255.699 247.83 259.949 247.049 264.163 246.767C279.923 245.59 295.147 250.116 307.012 259.512L316.58 247.419C301.673 235.627 282.7 229.928 263.08 231.387Z" fill="black"/>
<path d="M164.893 527.267C150.388 524.537 135.091 524.777 119.836 528.491L123.487 543.475C172.654 531.459 222.372 561.725 234.362 610.865L249.346 607.214C240.382 570.465 213.362 542.777 180.012 531.272C181.684 508.652 193.471 487.798 212.252 474.684L203.429 462.043C181.623 477.262 167.659 501.152 164.893 527.267Z" fill="black"/>
<path d="M593.147 278.92C601.266 265.196 605.527 249.628 605.527 233.488C605.527 189.961 574.267 153.597 532.991 145.603C533.725 140.941 534.1 136.165 534.1 131.327C534.1 81.9627 493.939 41.796 444.574 41.796C436.011 41.796 427.672 43.0199 419.746 45.3064C403.923 17.9837 374.287 0.67038 342.407 0.67038C332.818 0.67038 318.09 4.54531 312.016 6.26411C301.949 2.55051 291.511 0.67038 280.938 0.67038C249.058 0.67038 219.422 17.9824 203.599 45.3064C195.672 43.02 187.334 41.796 178.771 41.796C129.407 41.796 89.2443 81.9573 89.2443 131.327C89.2443 136.165 89.6141 140.941 90.3537 145.603C49.0777 153.597 17.8177 189.963 17.8177 233.488C17.8177 249.628 22.0781 265.196 30.1979 278.92C11.3019 295.717 0.208618 320.18 0.208618 345.712C0.208618 365.171 6.44301 383.201 17.0153 397.909C10.6611 410.326 7.31741 424.201 7.31741 438.357C7.31741 474.983 29.0881 507.253 62.2708 521.029C59.3645 529.946 57.8489 539.42 57.8489 548.832C57.8489 593.092 89.6462 630.113 132.698 637.144C134.558 644.389 138.823 657.483 147.668 670.628C159.829 688.592 183.064 710.003 224.714 710.003C263.636 710.003 297.141 686.419 311.673 652.805C326.204 686.42 359.709 710.003 398.632 710.003C440.282 710.003 463.522 688.591 475.689 670.607C484.522 657.476 488.788 644.388 490.648 637.143C533.7 630.111 565.497 593.091 565.497 548.831C565.497 539.419 563.981 529.945 561.075 521.028C594.258 507.252 616.028 474.981 616.028 438.356C616.028 424.2 612.685 410.325 606.331 397.908C616.903 383.195 623.137 365.168 623.137 345.711C623.137 320.18 612.043 295.716 593.148 278.919L593.147 278.92ZM595.22 410.655C598.761 419.368 600.605 428.78 600.605 438.357C600.605 470.956 579.788 499.384 548.802 509.103L544.037 519.525C547.985 528.639 550.073 538.775 550.073 548.837C550.073 587.039 521.459 618.727 483.511 622.539L476.672 628.992C476.646 629.159 473.859 645.711 462.912 661.987C448.272 683.618 426.647 694.586 398.636 694.586C354.939 694.586 319.391 659.086 319.391 615.446L319.38 312.312H303.964V412.9C283.256 400.614 258.844 394.942 233.86 396.827C225.73 397.363 217.5 398.874 208.683 401.452L213.011 416.255C220.725 413.994 227.875 412.677 234.938 412.213C260.094 410.369 284.454 417.125 303.959 431.369V615.449C303.959 659.085 268.407 694.589 224.714 694.589C196.703 694.589 175.078 683.62 160.448 662.01C149.49 645.718 146.703 629.161 146.683 629.016L139.839 622.542C101.891 618.729 73.2767 587.042 73.2767 548.839C73.2767 538.777 75.36 528.642 79.3131 519.527L74.5474 509.105C43.5634 499.386 22.7448 470.96 22.7448 438.36C22.7448 428.782 24.5885 419.371 28.1302 410.657C44.2129 425.955 65.9582 435.351 89.8543 435.351V419.929C48.9329 419.929 15.6356 386.632 15.6356 345.711C15.6356 322.241 26.3544 300.727 45.0476 286.684L46.7194 276.08C37.9069 263.58 33.2501 248.856 33.2501 233.492C33.2501 192.628 66.5475 159.382 107.469 159.382C148.333 159.382 181.573 192.628 181.573 233.492H196.994C196.994 184.128 156.833 143.961 107.467 143.961C106.884 143.961 106.301 143.971 105.717 143.982C105.02 139.883 104.676 135.701 104.676 131.326C104.676 90.4616 137.921 57.2163 178.78 57.2163C212.416 57.2163 241.916 79.9096 250.514 112.41L265.421 108.462C258.614 82.7484 240.978 62.1177 218.202 50.9457C231.557 29.5444 255.38 16.0911 280.942 16.0911C288.734 16.0911 296.458 17.3359 303.964 19.7889L303.834 172.762L316.328 178.814C328.198 169.413 343.474 164.872 359.246 166.075C363.381 166.346 367.631 167.132 372.225 168.476L376.553 153.673C370.86 152.012 365.532 151.033 360.329 150.694C345.829 149.59 331.684 152.423 319.261 158.72L319.381 20.24C326.271 18.4171 336.433 16.0941 342.412 16.0941C367.969 16.0941 391.792 29.5421 405.152 50.9488C382.375 62.1259 364.739 82.7555 357.933 108.465L372.84 112.413C381.444 79.918 410.944 57.2193 444.574 57.2193C485.438 57.2193 518.678 90.4647 518.678 131.329C518.678 135.704 518.334 139.886 517.637 143.985C517.053 143.975 516.475 143.964 515.887 143.964C466.523 143.964 426.36 184.125 426.36 233.495H441.781C441.781 192.631 475.027 159.385 515.885 159.385C556.807 159.385 590.104 192.631 590.104 233.495C590.104 248.859 585.448 263.588 576.635 276.083L578.306 286.687C597 300.728 607.718 322.244 607.718 345.714C607.718 386.635 574.421 419.932 533.5 419.932V435.354C557.39 435.348 579.136 425.947 595.218 410.656L595.22 410.655Z" fill="black"/>
<path d="M428.2 341.853C428.153 341.78 428.111 341.702 428.07 341.624C428.997 341.655 429.929 341.676 430.867 341.676C436.836 341.676 442.867 340.989 448.856 339.614C468.059 335.181 484.544 324.083 495.277 308.368C506.137 292.456 509.824 273.728 505.652 255.639L490.622 259.103C493.82 272.952 490.945 287.357 482.538 299.676C473.997 312.186 460.804 321.036 445.388 324.588C429.976 328.151 414.237 325.973 401.081 318.468C388.128 311.083 379.232 299.386 376.04 285.542L361.009 289.005C365.186 307.099 376.702 322.317 393.436 331.865C398.55 334.782 403.972 337.063 409.581 338.683C411.133 342.693 412.909 346.344 414.94 349.73C429.17 373.913 454.164 387.631 479.066 387.631C490.446 387.631 501.811 384.767 512.112 378.73L504.321 365.428C478.79 380.365 444.665 369.819 428.201 341.855L428.2 341.853Z" fill="black"/>
<path d="M458.44 527.253C455.674 501.144 441.705 477.253 419.904 462.035L411.081 474.675C429.862 487.79 441.649 508.639 443.321 531.259C409.972 542.765 382.952 570.462 373.988 607.202L388.972 610.853C400.951 561.708 450.649 531.457 499.846 543.462L503.497 528.478C488.247 524.765 472.951 524.524 458.44 527.253Z" fill="black"/>
</svg>
