<svg width="600" height="685" viewBox="0 0 600 685" fill="none" xmlns="http://www.w3.org/2000/svg">
<path d="M299.667 0.109335C257.787 0.0937094 216.369 8.88013 178.104 25.896C139.839 42.9119 105.573 67.7813 77.5307 98.8907C73.088 103.896 73.4682 111.537 78.3901 116.079C80.7546 118.344 83.937 119.563 87.213 119.464C90.489 119.36 93.5879 117.943 95.8119 115.532C136.891 70.0732 191.984 39.6519 252.332 29.1052C312.687 18.5531 374.837 28.4854 428.905 57.3132C482.968 86.1465 525.837 132.225 550.703 188.22C575.572 244.215 581.005 306.917 566.14 366.367C551.276 425.804 516.968 478.569 468.671 516.273C420.373 553.971 360.859 574.445 299.591 574.435C277.528 574.45 255.544 571.841 234.101 566.659C229.909 565.57 225.455 566.82 222.435 569.924L149.945 642.336V536.79C149.945 532.696 147.94 528.862 144.581 526.524C88.9714 488.545 49.2581 431.451 32.9967 366.097C16.7314 300.748 25.0541 231.697 56.3821 172.084C59.0695 167.136 58.0799 161.001 53.9706 157.152C51.1529 154.496 47.2518 153.308 43.4342 153.949C39.6165 154.595 36.3197 156.985 34.5227 160.418C0.886726 224.412 -8.45593 298.418 8.21073 368.764C24.8827 439.114 66.4401 501.056 125.216 543.164V672.195C125.185 676.825 127.773 681.07 131.904 683.164C133.685 684.08 135.654 684.56 137.659 684.565C140.935 684.57 144.081 683.252 146.367 680.909L235.112 592.163C290.039 604.252 347.258 600.632 400.219 581.715C453.183 562.803 499.75 529.361 534.606 485.221C569.45 441.075 591.163 388.013 597.256 332.101C603.35 276.194 593.584 219.699 569.074 169.087C544.563 118.475 506.292 75.7807 458.652 45.8993C411.012 16.014 355.918 0.15 299.679 0.112666L299.667 0.109335Z" fill="black"/>
<path d="M299.667 287.893C305.958 287.893 311.63 291.68 314.036 297.492C316.447 303.305 315.114 309.997 310.666 314.446C306.218 318.893 299.526 320.227 293.713 317.821C287.9 315.409 284.109 309.737 284.109 303.446C284.109 294.857 291.078 287.893 299.667 287.893ZM299.666 272.337C291.416 272.337 283.499 275.613 277.666 281.451C271.833 287.284 268.557 295.196 268.557 303.446C268.557 311.701 271.833 319.612 277.666 325.446C283.499 331.279 291.415 334.56 299.666 334.56C307.917 334.56 315.833 331.279 321.666 325.446C327.499 319.612 330.775 311.7 330.775 303.446C330.775 295.196 327.499 287.284 321.666 281.451C315.833 275.613 307.917 272.337 299.666 272.337Z" fill="black"/>
<path d="M190.773 287.893C197.065 287.893 202.737 291.68 205.148 297.492C207.554 303.305 206.221 309.997 201.773 314.446C197.325 318.893 190.632 320.227 184.82 317.821C179.007 315.409 175.221 309.737 175.221 303.446C175.221 294.857 182.185 287.893 190.773 287.893ZM190.773 272.337C182.523 272.337 174.612 275.613 168.778 281.451C162.94 287.284 159.664 295.196 159.664 303.446C159.664 311.701 162.94 319.612 168.778 325.446C174.612 331.279 182.523 334.56 190.773 334.56C199.028 334.56 206.939 331.279 212.773 325.446C218.606 319.612 221.887 311.7 221.887 303.446C221.887 295.196 218.606 287.284 212.773 281.451C206.939 275.613 199.027 272.337 190.773 272.337Z" fill="black"/>
<path d="M408.56 287.893C414.852 287.893 420.524 291.68 422.929 297.492C425.336 303.305 424.007 309.997 419.56 314.446C415.107 318.893 408.419 320.227 402.606 317.821C396.794 315.409 393.002 309.737 393.002 303.446C393.002 294.857 399.966 287.893 408.56 287.893ZM408.559 272.337C400.304 272.337 392.393 275.613 386.559 281.451C380.726 287.284 377.445 295.196 377.445 303.446C377.445 311.701 380.726 319.612 386.559 325.446C392.393 331.279 400.305 334.56 408.559 334.56C416.809 334.56 424.721 331.279 430.554 325.446C436.393 319.612 439.669 311.7 439.669 303.446C439.669 295.196 436.393 287.284 430.554 281.451C424.721 275.613 416.809 272.337 408.559 272.337Z" fill="black"/>
</svg>
