<svg width="429" height="222" viewBox="0 0 429 222" fill="none" xmlns="http://www.w3.org/2000/svg">
<path d="M238.56 111.333C238.56 124.531 227.862 135.229 214.664 135.229C201.466 135.229 190.768 124.532 190.768 111.333C190.768 98.1352 201.466 87.4374 214.664 87.4374C227.862 87.4374 238.56 98.1352 238.56 111.333Z" fill="black"/>
<path d="M425.973 104.613C373.708 47.1187 293.812 0.82666 214.667 0.82666C135.521 0.82666 56.3732 47.1187 3.35988 104.613C-0.374518 108.348 -0.374518 113.572 3.35988 118.051C55.6252 174.796 135.521 221.837 214.667 221.837C293.812 221.837 372.96 175.545 425.973 118.051C428.213 115.811 428.213 113.571 428.213 111.332C428.213 109.092 427.468 106.853 425.973 104.613ZM214.667 202.425C143.735 202.425 72.0532 161.357 22.7732 111.332C72.0545 60.5613 142.987 20.2387 214.667 20.2387C286.347 20.2387 357.28 60.5613 406.56 111.332C357.279 162.103 285.596 202.425 214.667 202.425Z" fill="black"/>
<path d="M281.867 109.093C278.882 74 252.003 44.88 214.669 44.88C178.081 44.88 147.472 75.4947 147.472 112.077C147.472 147.171 175.847 177.785 211.685 179.275C250.513 180.769 278.883 150.9 281.873 113.567V112.822L281.868 111.332V109.093L281.867 109.093ZM166.137 111.333C166.137 48.6143 259.471 49.3596 263.205 111.333C259.471 173.306 166.137 174.052 166.137 111.333Z" fill="black"/>
<path d="M238.56 111.333C238.56 124.531 227.862 135.229 214.664 135.229C201.466 135.229 190.768 124.532 190.768 111.333C190.768 98.1352 201.466 87.4374 214.664 87.4374C227.862 87.4374 238.56 98.1352 238.56 111.333Z" fill="black"/>
<path d="M238.56 111.333C238.56 124.531 227.862 135.229 214.664 135.229C201.466 135.229 190.768 124.532 190.768 111.333C190.768 98.1352 201.466 87.4374 214.664 87.4374C227.862 87.4374 238.56 98.1352 238.56 111.333Z" fill="black"/>
</svg>
