<svg width="359" height="539" viewBox="0 0 359 539" fill="none" xmlns="http://www.w3.org/2000/svg">
<path d="M229.493 0.906671C225.67 1.53688 222.238 3.62547 219.931 6.73481L3.50413 290.268C0.0301297 294.784 -0.563609 300.883 1.96252 305.987C4.48852 311.091 9.70213 314.31 15.3945 314.289H154.395L120.113 520.649V520.644C118.822 527.529 122.488 534.384 128.931 537.128C135.374 539.873 142.863 537.768 146.931 532.07L355.891 248.537H355.896C359.25 243.985 359.75 237.933 357.183 232.897C354.615 227.861 349.422 224.71 343.767 224.751H211.996L246.512 18.1645H246.517C247.324 13.4301 245.804 8.5916 242.429 5.16973C239.054 1.75307 234.236 0.164526 229.491 0.909326L229.493 0.906671ZM207.337 72.4907L179.816 237.104C179.061 241.443 180.259 245.896 183.092 249.265C185.925 252.64 190.102 254.588 194.509 254.594H314.149L159.762 463.98L186.814 301.7V301.695C187.496 297.393 186.262 293.008 183.439 289.69C180.611 286.372 176.481 284.455 172.121 284.44H45.4813L207.335 72.4932L207.337 72.4907Z" fill="black"/>
</svg>
